HIERARCHY
ROOT hip
{
	OFFSET	0.00  0.00  0.00 
	CHANNELS 6 Xposition Yposition Zposition Xrotation Zrotation Yrotation
	JOINT abdomen
	{
		OFFSET	0.000000 0.000000 0.000000
		CHANNELS 3 Xrotation Zrotation Yrotation
		JOINT chest
		{
			OFFSET	0.000000 5.018152 -1.882228
			CHANNELS 3 Xrotation Zrotation Yrotation
			JOINT neckDummy
			{
				OFFSET	0.000000 8.316447 0.784897
				CHANNELS 3 Xrotation Yrotation Zrotation
				JOINT neck
				{
					OFFSET	0.000000 2.280413 -0.392801
					CHANNELS 3 Xrotation Zrotation Yrotation
					JOINT head
					{
						OFFSET	0.000000 3.496879 0.529469
						CHANNELS 3 Xrotation Zrotation Yrotation
						JOINT figureHair
						{
							OFFSET	0.000000 4.699570 0.720622
							CHANNELS 3 Zrotation Yrotation Xrotation
							End Site
							{
								OFFSET 0.000000 -6.419331 0.000000
							}
						}
					}
				}
			}
			JOINT lCollar
			{
				OFFSET	0.599237 8.316447 0.784897
				CHANNELS 3 Yrotation Zrotation Xrotation
				JOINT lShldr
				{
					OFFSET	6.421198 0.010146 -0.332128
					CHANNELS 3 Zrotation Yrotation Xrotation
					JOINT lForeArm
					{
						OFFSET	10.552783 0.025574 0.125508
						CHANNELS 3 Yrotation Zrotation Xrotation
						JOINT lHand
						{
							OFFSET	11.035963 0.319619 0.041520
							CHANNELS 3 Zrotation Yrotation Xrotation
							End Site
							{
								OFFSET 10.353753 0.000000 0.000000
							}
						}
					}
				}
			}
			JOINT rCollar
			{
				OFFSET	-0.599237 8.316447 0.784897
				CHANNELS 3 Yrotation Zrotation Xrotation
				JOINT rShldr
				{
					OFFSET	-6.421198 0.010146 -0.332128
					CHANNELS 3 Zrotation Yrotation Xrotation
					JOINT rForeArm
					{
						OFFSET	-10.552783 0.025574 0.125508
						CHANNELS 3 Yrotation Zrotation Xrotation
						JOINT rHand
						{
							OFFSET	-11.035963 0.319619 0.041520
							CHANNELS 3 Zrotation Yrotation Xrotation
							End Site
							{
								OFFSET -10.353753 0.000000 0.000000
							}
						}
					}
				}
			}
		}
	}
	JOINT lThigh
	{
		OFFSET	4.500466 -6.400484 -1.832696
		CHANNELS 3 Xrotation Zrotation Yrotation
		JOINT lShin
		{
			OFFSET	-1.359117 -18.918689 1.179887
			CHANNELS 3 Xrotation Zrotation Yrotation
			JOINT lFoot
			{
				OFFSET	-0.652380 -17.215186 -0.312137
				CHANNELS 3 Xrotation Yrotation Zrotation
				End Site
				{
					OFFSET 0.000000 0.000000 10.353752
				}
			}
		}
	}
	JOINT rThigh
	{
		OFFSET	-4.500466 -6.400484 -1.832696
		CHANNELS 3 Xrotation Zrotation Yrotation
		JOINT rShin
		{
			OFFSET	1.359117 -18.918689 1.179887
			CHANNELS 3 Xrotation Zrotation Yrotation
			JOINT rFoot
			{
				OFFSET	0.652380 -17.215186 -0.312137
				CHANNELS 3 Xrotation Yrotation Zrotation
				End Site
				{
					OFFSET 0.000000 0.000000 10.353752
				}
			}
		}
	}
}
MOTION
Frames:     18
Frame Time: 0.066667
24.460018 39.040001 10.059996 179.296997 -178.720993 -4.306860 24.902300 -0.253906 -8.603560 0.000000 0.000000 0.000000 0.000000 0.000000 0.000000 -30.615200 -8.544920 9.305190 0.000000 0.000000 0.000000 0.000000 0.000000 0.000000 0.000000 0.000000 0.000000 -41.304699 -58.028999 51.783001 -106.227997 30.652300 53.164001 20.075701 2.103870 -41.483601 0.000000 0.000000 0.000000 31.160601 27.316200 38.802799 136.048996 -31.355700 56.786701 -36.282600 -0.712552 -33.239498 -34.211781 19.555550 7.019458 50.294613 2.536610 -6.312580 2.219770 -6.261111 -24.692068 -19.528946 -21.293505 -18.862000 44.814350 -5.029409 2.168484 -12.519560 -3.595465 10.425661 
22.610010 40.180000 9.480000 175.302994 176.309006 -1.972030 22.470699 10.683600 -6.103520 0.000000 0.000000 0.000000 0.000000 0.000000 0.000000 -43.212898 -7.109380 11.766400 0.000000 0.000000 0.000000 0.000000 0.000000 0.000000 0.000000 0.000000 0.000000 7.335990 -51.441502 15.959200 -118.555000 36.931900 67.437698 -7.488940 -21.844500 -56.768501 0.000000 0.000000 0.000000 61.842701 38.182899 55.648899 130.854996 -31.377600 55.332901 -50.276699 4.965310 -23.809299 -36.492176 20.028135 2.542138 46.704918 1.646888 -5.712593 2.289764 -7.011387 -26.050211 -15.612088 -15.793320 -21.447563 27.109936 -1.455374 -4.462052 0.749535 4.746216 14.460855 
19.900019 40.740002 8.170001 173.701004 176.563004 -6.600980 25.019501 9.902340 0.761719 0.000000 0.000000 0.000000 0.000000 0.000000 0.000000 -51.748001 -3.281250 8.779300 0.000000 0.000000 0.000000 0.000000 0.000000 0.000000 0.000000 0.000000 0.000000 0.512786 -35.916500 14.885500 -133.737000 35.811699 81.400703 -8.535970 -22.692801 -51.516998 0.000000 0.000000 0.000000 75.543503 55.100601 75.084000 121.931999 -33.908699 52.079700 -48.515800 11.272600 -17.262100 -29.831118 14.510239 3.611875 40.360512 -0.633695 -1.193458 -0.121096 -2.702396 -13.088604 -13.434398 -17.726379 -16.049162 12.831148 -1.347610 -3.806987 15.761575 14.305305 19.893885 
16.649975 40.599998 9.539999 -9.257810 -1.269530 169.432999 25.175800 2.099610 -0.351205 0.000000 0.000000 0.000000 0.000000 0.000000 0.000000 -49.023399 -1.367190 3.886490 0.000000 0.000000 0.000000 0.000000 0.000000 0.000000 0.000000 0.000000 0.000000 -38.896000 -35.421600 42.253201 -120.083000 32.663200 66.621498 50.049702 5.301470 -32.747898 0.000000 0.000000 0.000000 16.699600 66.649597 30.288799 120.458000 -35.160702 53.818401 -9.902470 18.639700 -19.903000 -31.342720 6.521253 14.174910 36.352222 -0.046839 3.457396 -5.814256 -0.871003 -2.348848 -25.582088 -23.706158 -9.271358 20.243843 -2.646447 -0.761838 18.405481 12.069529 18.056347 
14.640000 38.750000 10.160003 165.292999 -177.891006 -7.627310 24.619101 3.222660 -7.138670 0.000000 0.000000 0.000000 0.000000 0.000000 0.000000 -38.710899 -3.681640 5.712260 0.000000 0.000000 0.000000 0.000000 0.000000 0.000000 0.000000 0.000000 0.000000 -40.063099 -49.442402 55.269600 -96.457199 33.319000 48.880501 51.377399 10.518400 -32.439400 0.000000 0.000000 0.000000 -2.204790 45.895699 30.455799 116.047997 -43.488300 53.379398 -35.390499 10.102500 -40.731400 -43.894596 4.833685 15.647022 46.647877 -0.742768 -0.154564 -10.855830 0.968590 2.250129 -42.307961 -19.459059 -7.359364 53.011520 -6.991955 -5.515823 2.344921 -1.184767 10.795881 
13.800000 36.369995 10.220003 164.257996 -178.671997 -4.853740 27.607401 8.691410 -7.773440 0.000000 0.000000 0.000000 0.000000 0.000000 0.000000 -35.400398 -8.603510 10.703100 0.000000 0.000000 0.000000 0.000000 0.000000 0.000000 0.000000 0.000000 0.000000 4.508150 -56.110401 27.626499 -102.950996 38.513401 57.431198 -8.471720 -19.552700 -46.132999 0.000000 0.000000 0.000000 51.543098 39.115200 58.351700 108.656998 -37.630901 44.450001 -62.556499 0.048760 -33.247601 -53.297108 2.264903 11.131377 60.244869 -1.107410 -3.271842 -17.215250 6.922134 5.647644 -47.106819 -12.694091 -16.419710 86.456696 -3.097353 -12.672954 -9.244517 -4.996626 7.272015 
13.090043 34.419998 10.409994 -16.523399 -7.246090 169.910995 34.111301 0.185547 1.015660 0.000000 0.000000 0.000000 0.000000 0.000000 0.000000 -48.193401 -3.417970 8.134770 0.000000 0.000000 0.000000 0.000000 0.000000 0.000000 0.000000 0.000000 0.000000 2.954140 -36.798199 10.848300 -129.360001 37.155602 81.162598 -35.465199 -39.059399 -37.683601 0.000000 0.000000 0.000000 98.036003 53.771099 91.696503 103.807999 -37.301800 41.299702 -61.822102 5.233620 -27.870600 -60.517773 -0.644062 11.897724 69.096245 -4.471066 0.055710 -22.102579 10.850702 8.970250 -39.537464 -3.133214 -27.321999 92.534691 -1.172755 -9.435806 -10.299690 -2.500684 6.434993 
12.109958 33.000004 10.650015 -18.877001 -13.261700 164.871002 32.744099 -14.736300 1.071730 0.000000 0.000000 0.000000 0.000000 0.000000 0.000000 -55.429699 3.085940 0.009766 0.000000 0.000000 0.000000 0.000000 0.000000 0.000000 0.000000 0.000000 0.000000 -38.388599 -30.508499 11.620500 -124.900002 39.946201 72.624901 13.832600 -18.785000 -42.844898 0.000000 0.000000 0.000000 19.044800 103.075996 23.860500 98.557701 -37.050400 41.260899 -20.258101 16.209801 -24.777700 -68.395500 -0.049448 15.418444 75.121490 -8.268679 2.151850 -25.525967 11.662073 10.773380 -29.866154 8.369387 -23.424446 76.599915 -0.498526 -8.338244 -21.829575 -4.288180 -1.725455 
11.919966 31.900019 10.689981 -19.218800 -15.546900 165.313004 31.826200 -24.531300 -6.400540 0.000000 0.000000 0.000000 0.000000 0.000000 0.000000 -52.695301 -1.318360 -1.865460 0.000000 0.000000 0.000000 0.000000 0.000000 0.000000 0.000000 0.000000 0.000000 -59.046600 -35.008999 48.527401 -100.419998 41.819599 52.245602 59.916000 9.370190 -39.936501 0.000000 0.000000 0.000000 -63.221199 57.116901 -20.242300 100.521004 -44.277401 45.253700 -11.445800 19.923201 -37.770802 -72.275146 0.527680 16.742006 80.916420 -9.950885 0.631846 -27.999245 12.009396 9.488456 -26.144154 16.704741 -11.869935 66.512695 0.392905 -13.095634 -36.390453 -11.067480 -8.119799 
13.049974 32.369995 10.340003 -17.724600 -13.193400 168.893997 33.632801 -25.048800 -10.824400 0.000000 0.000000 0.000000 0.000000 0.000000 0.000000 -49.023399 -6.972660 3.924680 0.000000 0.000000 0.000000 0.000000 0.000000 0.000000 0.000000 0.000000 0.000000 -31.651501 -54.297199 45.671200 -88.985703 36.387001 45.692600 15.808400 -2.694560 -44.208000 0.000000 0.000000 0.000000 22.680901 43.326500 47.773201 102.703003 -44.094200 42.109600 -47.567501 4.053700 -41.125801 -68.275688 -1.055603 14.927338 79.405052 -6.950631 -0.474389 -27.335297 11.766909 7.040424 -31.111982 8.945057 -19.964577 78.191498 1.768133 -9.669727 -15.289540 2.242389 4.070293 
14.299984 34.519997 10.009997 -16.171900 -11.435500 164.910004 33.720699 -21.572300 -8.978200 0.000000 0.000000 0.000000 0.000000 0.000000 0.000000 -49.267601 -6.406250 10.859400 0.000000 0.000000 0.000000 0.000000 0.000000 0.000000 0.000000 0.000000 0.000000 5.381570 -51.187099 11.101200 -111.193001 41.780899 66.058899 -43.846199 -34.661800 -36.408001 0.000000 0.000000 0.000000 89.449402 43.100800 78.170998 108.342003 -32.832298 38.739300 -57.381699 -0.786328 -31.766500 -61.564388 0.183631 13.771920 71.969704 -4.088021 0.903382 -24.770103 13.289070 7.792839 -38.792057 -5.797352 -20.208059 92.239319 0.487347 -4.641293 -4.104780 5.749721 13.242988 
14.919967 37.519997 10.510001 -13.984400 -13.242200 159.052994 30.371099 -23.730499 -3.587910 0.000000 0.000000 0.000000 0.000000 0.000000 0.000000 -50.664101 1.738280 5.400690 0.000000 0.000000 0.000000 0.000000 0.000000 0.000000 0.000000 0.000000 0.000000 -22.050900 -48.766602 0.454156 -125.849998 44.437801 76.266197 -12.333500 -23.529900 -46.083401 0.000000 0.000000 0.000000 -25.614599 113.544998 -31.243299 106.470001 -39.641701 41.757801 -6.730630 13.716600 -22.446400 -52.651939 1.082400 18.312075 57.991024 -2.543680 2.829902 -18.397747 12.764734 7.483662 -50.398361 -21.131594 -15.197055 92.997414 -4.853484 -8.588019 -8.916475 -2.107915 9.679274 
16.760035 41.189999 11.629998 -17.167999 -10.634800 165.419998 25.127001 -21.171900 -5.712890 0.000000 0.000000 0.000000 0.000000 0.000000 0.000000 -54.863300 2.900390 -3.105470 0.000000 0.000000 0.000000 0.000000 0.000000 0.000000 0.000000 0.000000 0.000000 -48.806198 -56.373798 43.140499 -112.691002 40.461899 58.266300 55.030800 24.367599 -40.378101 0.000000 0.000000 0.000000 -72.569504 47.935200 -44.853600 108.655998 -52.729698 48.000599 38.326099 41.578400 -35.113998 -43.035240 -0.263984 16.793167 33.581902 1.271736 1.720229 -3.881829 8.797177 3.139732 -54.781536 -26.842978 -11.504419 66.606567 -7.118078 -2.701765 -1.228448 -1.174360 12.936762 
19.479965 42.879997 12.310032 -17.031300 -1.601560 168.798996 21.933599 -9.667970 -7.656250 0.000000 0.000000 0.000000 0.000000 0.000000 0.000000 -51.035198 -2.343750 2.871090 0.000000 0.000000 0.000000 0.000000 0.000000 0.000000 0.000000 0.000000 0.000000 -2.709240 -59.835701 22.590500 -102.110001 42.227501 44.813999 42.211700 30.436800 -47.740200 0.000000 0.000000 0.000000 -13.109100 46.180401 -1.528790 117.170998 -49.577400 54.610001 10.478100 33.251701 -51.921398 -30.516899 6.523380 10.699536 12.101368 3.228342 1.943378 8.506573 4.693287 -2.205423 -44.047543 -20.563433 -7.074247 36.723217 2.967392 -8.894299 10.119444 6.650379 22.222046 
23.419985 42.619995 11.239972 -16.962900 3.828120 167.462006 18.896500 -0.468750 -7.392660 0.000000 0.000000 0.000000 0.000000 0.000000 0.000000 -44.375000 -5.810550 12.597700 0.000000 0.000000 0.000000 0.000000 0.000000 0.000000 0.000000 0.000000 0.000000 39.315601 -35.239101 -8.242030 -102.208000 47.588100 54.251099 -13.731800 -27.910500 -62.826599 0.000000 0.000000 0.000000 47.257500 61.614899 38.668999 118.904999 -37.173599 43.949100 -40.905602 -5.510210 -38.353100 -23.814873 17.945660 9.839400 6.635652 2.243789 4.215805 9.991696 1.164123 -7.514035 -40.355316 -11.569517 -10.854028 27.043634 4.029973 -14.123080 11.714281 14.593343 20.729654 
25.370008 41.270000 9.279996 -16.923800 0.878906 168.085999 21.113300 -7.929690 -1.611330 0.000000 0.000000 0.000000 0.000000 0.000000 0.000000 -41.972698 2.695310 4.013670 0.000000 0.000000 0.000000 0.000000 0.000000 0.000000 0.000000 0.000000 0.000000 26.601000 -42.490299 -30.352400 -113.268997 52.088200 66.747902 -31.131399 -31.067900 -47.844898 0.000000 0.000000 0.000000 5.098130 102.560997 -5.474780 106.055000 -40.857101 36.053101 -20.840300 5.531660 -32.904099 -34.712307 21.217299 7.146979 30.613356 -1.908673 8.215247 2.018043 6.767440 -4.904843 -44.342583 -9.187943 -21.698927 36.285706 -0.541318 -5.724151 2.367061 11.560292 6.614564 
24.850044 38.759991 6.480000 -16.953100 2.031250 171.699005 22.343700 -10.117200 -1.083980 0.000000 0.000000 0.000000 0.000000 0.000000 0.000000 -44.863300 10.644500 -5.810550 0.000000 0.000000 0.000000 0.000000 0.000000 0.000000 0.000000 0.000000 0.000000 -7.712160 -64.102699 -14.578400 -109.310997 42.837002 57.555599 27.449100 12.815800 -53.208199 0.000000 0.000000 0.000000 -85.105499 44.269798 -76.750504 86.389297 -45.396301 28.521200 53.961601 39.701698 -25.069000 -45.834572 22.631975 15.899656 66.100525 -6.351329 6.691630 -5.266109 11.006609 -1.240762 -50.913086 -7.664121 -17.374723 50.880795 3.025698 -6.272913 -7.846872 3.442478 0.382350 
26.840034 36.459999 5.809998 165.156006 171.630997 -3.260300 22.744101 1.357420 -4.452890 0.000000 0.000000 0.000000 0.000000 0.000000 0.000000 -40.683601 0.302734 -0.351511 0.000000 0.000000 0.000000 0.000000 0.000000 0.000000 0.000000 0.000000 0.000000 6.133210 -69.146797 1.297320 -99.006599 46.851398 43.757702 46.609100 36.671398 -50.983299 0.000000 0.000000 0.000000 -64.592003 25.255699 -29.182699 75.692299 -64.525497 17.095600 75.020599 50.957600 -19.713900 -45.818073 21.413172 27.039963 92.237572 -9.843763 -1.034799 -5.505539 9.089956 -4.621781 -51.605293 -5.114170 -24.639294 62.201721 3.006971 -4.316024 -16.811436 -1.235520 -1.950044 
